<?xml version="1.0" encoding="UTF-8" standalone="no"?>
<!DOCTYPE svg PUBLIC "-//W3C//DTD SVG 1.1//EN" "http://www.w3.org/Graphics/SVG/1.1/DTD/svg11.dtd">
<svg width="100%" height="100%" viewBox="0 0 16 9" version="1.1" xmlns="http://www.w3.org/2000/svg" xmlns:xlink="http://www.w3.org/1999/xlink" xml:space="preserve" xmlns:serif="http://www.serif.com/" style="fill-rule:evenodd;clip-rule:evenodd;stroke-linejoin:round;stroke-miterlimit:2;">
    <g transform="matrix(0.0164132,0,0,0.0164132,4.16654,0.299557)">
        <path d="M135.2,17.7C140.6,6.8 151.7,0 163.8,0L284.2,0C296.3,0 307.4,6.8 312.8,17.7L320,32L416,32C433.7,32 448,46.3 448,64C448,81.7 433.7,96 416,96L32,96C14.3,96 0,81.7 0,64C0,46.3 14.3,32 32,32L128,32L135.2,17.7ZM32,128L416,128L416,448C416,483.3 387.3,512 352,512L96,512C60.7,512 32,483.3 32,448L32,128ZM128,192C119.2,192 112,199.2 112,208L112,432C112,440.8 119.2,448 128,448C136.8,448 144,440.8 144,432L144,208C144,199.2 136.8,192 128,192ZM224,192C215.2,192 208,199.2 208,208L208,432C208,440.8 215.2,448 224,448C232.8,448 240,440.8 240,432L240,208C240,199.2 232.8,192 224,192ZM320,192C311.2,192 304,199.2 304,208L304,432C304,440.8 311.2,448 320,448C328.8,448 336,440.8 336,432L336,208C336,199.2 328.8,192 320,192Z" style="fill:rgb(53,90,130);fill-rule:nonzero;"/>
    </g>
</svg>
