<?xml version="1.0" encoding="UTF-8" standalone="no"?>
<!DOCTYPE svg PUBLIC "-//W3C//DTD SVG 1.1//EN" "http://www.w3.org/Graphics/SVG/1.1/DTD/svg11.dtd">
<svg width="100%" height="100%" viewBox="0 0 18 14" version="1.1" xmlns="http://www.w3.org/2000/svg" xmlns:xlink="http://www.w3.org/1999/xlink" xml:space="preserve" xmlns:serif="http://www.serif.com/" style="fill-rule:evenodd;clip-rule:evenodd;stroke-linecap:round;stroke-linejoin:round;stroke-miterlimit:1.5;">
    <g transform="matrix(1,0,0,1,-1073,-691)">
        <g transform="matrix(0.529102,0,0,0.529102,619.533,333.678)">
            <path d="M887.327,677.263L874.036,686.908L860.746,677.263C861.127,677.09 861.55,676.994 861.995,676.994L886.077,676.994C886.523,676.994 886.946,677.09 887.327,677.263ZM858.989,679.695L873.155,689.976C873.68,690.357 874.393,690.357 874.917,689.976L889.084,679.695C889.095,679.801 889.101,679.908 889.101,680.017L889.101,697.506C889.101,699.175 887.746,700.53 886.077,700.53L861.995,700.53C860.327,700.53 858.972,699.175 858.972,697.506L858.972,680.017C858.972,679.908 858.978,679.801 858.989,679.695Z" style="fill:rgb(45,136,255);stroke:rgb(36,125,226);stroke-width:1.89px;"/>
        </g>
    </g>
</svg>
