<?xml version="1.0" encoding="UTF-8" standalone="no"?>
<!DOCTYPE svg PUBLIC "-//W3C//DTD SVG 1.1//EN" "http://www.w3.org/Graphics/SVG/1.1/DTD/svg11.dtd">
<svg width="100%" height="100%" viewBox="0 0 22 9" version="1.1" xmlns="http://www.w3.org/2000/svg" xmlns:xlink="http://www.w3.org/1999/xlink" xml:space="preserve" xmlns:serif="http://www.serif.com/" style="fill-rule:evenodd;clip-rule:evenodd;stroke-linejoin:round;stroke-miterlimit:2;">
    <g transform="matrix(1.09283,0,0,1.09283,0.0278196,7.77689)">
        <g>
            <g>
                <g>
                    <rect x="0.783" y="-6.231" width="0.822" height="6.231" style="fill:rgb(45,137,255);fill-rule:nonzero;stroke:rgb(36,125,226);stroke-width:0.46px;"/>
                    <path d="M3.107,0L3.107,-6.231L5.144,-6.231C5.82,-6.231 6.328,-6.091 6.669,-5.811C7.01,-5.532 7.181,-5.118 7.181,-4.57C7.181,-4.279 7.098,-4.022 6.932,-3.798C6.767,-3.574 6.542,-3.401 6.256,-3.278C6.593,-3.184 6.859,-3.005 7.054,-2.741C7.25,-2.477 7.348,-2.162 7.348,-1.797C7.348,-1.238 7.166,-0.799 6.804,-0.479C6.442,-0.16 5.93,0 5.268,0L3.107,0ZM3.928,-2.914L3.928,-0.672L5.285,-0.672C5.667,-0.672 5.969,-0.771 6.19,-0.969C6.411,-1.168 6.522,-1.441 6.522,-1.789C6.522,-2.539 6.114,-2.914 5.298,-2.914L3.928,-2.914ZM3.928,-3.573L5.169,-3.573C5.529,-3.573 5.816,-3.663 6.032,-3.843C6.247,-4.023 6.355,-4.266 6.355,-4.575C6.355,-4.917 6.255,-5.166 6.055,-5.321C5.856,-5.477 5.552,-5.555 5.144,-5.555L3.928,-5.555L3.928,-3.573Z" style="fill:rgb(45,137,255);fill-rule:nonzero;stroke:rgb(36,125,226);stroke-width:0.46px;"/>
                    <path d="M12.003,-1.626L9.393,-1.626L8.807,0L7.959,0L10.339,-6.231L11.058,-6.231L13.441,0L12.598,0L12.003,-1.626ZM9.641,-2.302L11.76,-2.302L10.698,-5.216L9.641,-2.302Z" style="fill:rgb(45,137,255);fill-rule:nonzero;stroke:rgb(36,125,226);stroke-width:0.46px;"/>
                    <path d="M19.069,0L18.243,0L15.106,-4.801L15.106,0L14.28,0L14.28,-6.231L15.106,-6.231L18.251,-1.408L18.251,-6.231L19.069,-6.231L19.069,0Z" style="fill:rgb(45,137,255);fill-rule:nonzero;stroke:rgb(36,125,226);stroke-width:0.46px;"/>
                </g>
            </g>
        </g>
    </g>
</svg>
