<?xml version="1.0" encoding="UTF-8" standalone="no"?>
<!DOCTYPE svg PUBLIC "-//W3C//DTD SVG 1.1//EN" "http://www.w3.org/Graphics/SVG/1.1/DTD/svg11.dtd">
<svg width="100%" height="100%" viewBox="0 0 16 9" version="1.1" xmlns="http://www.w3.org/2000/svg" xmlns:xlink="http://www.w3.org/1999/xlink" xml:space="preserve" xmlns:serif="http://www.serif.com/" style="fill-rule:evenodd;clip-rule:evenodd;stroke-linejoin:round;stroke-miterlimit:2;">
    <g transform="matrix(1,0,0,1,-1011,-776)">
        <g transform="matrix(0.0171558,0,0,0.0171558,1012.98,776.108)">
            <path d="M535,41C525.6,31.6 525.6,16.4 535,7.1C544.4,-2.2 559.6,-2.3 568.9,7.1L632.9,71.1C637.4,75.6 639.9,81.7 639.9,88.1C639.9,94.5 637.4,100.6 632.9,105.1L568.9,169.1C559.5,178.5 544.3,178.5 535,169.1C525.7,159.7 525.6,144.5 535,135.2L558,112.2L384,112C370.7,112 360,101.3 360,88C360,74.7 370.7,64 384,64L558.1,64L535,41Z" style="fill:rgb(0,166,80);"/>
        </g>
        <g transform="matrix(0.0171558,0,0,0.0171558,1012.98,776.108)">
            <path d="M105,377L82,400L256,400C269.3,400 280,410.7 280,424C280,437.3 269.3,448 256,448L81.9,448L104.9,471C114.3,480.4 114.3,495.6 104.9,504.9C95.5,514.2 80.3,514.3 71,504.9L7,441C2.5,436.5 0,430.4 0,424C0,417.6 2.5,411.5 7,407L71,343C80.4,333.6 95.6,333.6 104.9,343C114.2,352.4 114.3,367.6 104.9,376.9L105,377Z" style="fill:rgb(237,28,36);"/>
        </g>
        <g transform="matrix(1,0,0,1,1011,776)">
            <path d="M3.629,1.206L7.779,1.206C7.716,1.33 7.678,1.469 7.678,1.618C7.678,2.11 8.077,2.51 8.57,2.51L10.584,2.51C10.515,2.802 10.594,3.119 10.821,3.347C11.169,3.695 11.733,3.695 12.082,3.347L12.413,3.016L12.413,6.696C12.413,7.302 11.92,7.794 11.315,7.794L7.165,7.794C7.228,7.67 7.266,7.531 7.266,7.382C7.266,6.89 6.866,6.49 6.374,6.49L4.36,6.49C4.428,6.198 4.35,5.881 4.123,5.653C3.775,5.305 3.21,5.305 2.862,5.653L2.531,5.984L2.531,2.304C2.531,1.698 3.023,1.206 3.629,1.206ZM4.727,2.304L3.629,2.304L3.629,3.402C4.235,3.402 4.727,2.91 4.727,2.304ZM11.315,5.598C10.709,5.598 10.217,6.09 10.217,6.696L11.315,6.696L11.315,5.598ZM7.472,6.147C8.375,6.147 9.119,5.403 9.119,4.5C9.119,3.597 8.375,2.853 7.472,2.853C6.568,2.853 5.825,3.597 5.825,4.5C5.825,5.403 6.568,6.147 7.472,6.147Z" style="fill:rgb(53,90,130);"/>
        </g>
    </g>
</svg>
