<?xml version="1.0" encoding="UTF-8" standalone="no"?>
<!DOCTYPE svg PUBLIC "-//W3C//DTD SVG 1.1//EN" "http://www.w3.org/Graphics/SVG/1.1/DTD/svg11.dtd">
<svg width="100%" height="100%" viewBox="0 0 16 16" version="1.1" xmlns="http://www.w3.org/2000/svg" xmlns:xlink="http://www.w3.org/1999/xlink" xml:space="preserve" xmlns:serif="http://www.serif.com/" style="fill-rule:evenodd;clip-rule:evenodd;stroke-linecap:round;stroke-linejoin:round;stroke-miterlimit:1.5;">
    <g transform="matrix(1,0,0,1,-1073,-772)">
        <g transform="matrix(0.529102,0,0,0.529102,619.971,333.693)">
            <g transform="matrix(1.23903,0,0,1.302,-210.538,-253.59)">
                <ellipse cx="873.462" cy="841.268" rx="7.662" ry="8.447" style="fill:none;stroke:rgb(36,125,226);stroke-width:2.97px;"/>
            </g>
            <g transform="matrix(1,0,0,0.962954,-32.5504,32.3488)">
                <path d="M917.819,843.034C917.819,841.651 916.738,840.528 915.406,840.528L893.107,840.528C891.775,840.528 890.694,841.651 890.694,843.034L890.694,854.588C890.694,855.971 891.775,857.094 893.107,857.094L915.406,857.094C916.738,857.094 917.819,855.971 917.819,854.588L917.819,843.034Z" style="fill:rgb(45,137,255);stroke:rgb(36,125,226);stroke-width:1.93px;"/>
            </g>
            <g transform="matrix(0.801028,0,0,0.801028,173.445,169.197)">
                <path d="M872.906,850.325L874.106,853.623L869.306,853.623L870.507,850.325C869.976,849.948 869.629,849.329 869.629,848.629C869.629,847.483 870.56,846.552 871.706,846.552C872.852,846.552 873.783,847.483 873.783,848.629C873.783,849.329 873.436,849.948 872.906,850.325Z" style="fill:white;"/>
            </g>
        </g>
    </g>
</svg>
