<?xml version="1.0" encoding="UTF-8" standalone="no"?>
<!DOCTYPE svg PUBLIC "-//W3C//DTD SVG 1.1//EN" "http://www.w3.org/Graphics/SVG/1.1/DTD/svg11.dtd">
<svg width="100%" height="100%" viewBox="0 0 576 512" version="1.1" xmlns="http://www.w3.org/2000/svg" xmlns:xlink="http://www.w3.org/1999/xlink" xml:space="preserve" xmlns:serif="http://www.serif.com/" style="fill-rule:evenodd;clip-rule:evenodd;stroke-linejoin:round;stroke-miterlimit:2;">
    <g transform="matrix(1,0,0,-1,0,512)">
        <path d="M183.6,469.6C177.5,476.2 169,480 160,480C151,480 142.5,476.2 136.4,469.6L48.4,373.6C36.5,360.6 37.3,340.3 50.4,328.4C63.5,316.5 83.7,317.3 95.6,330.4L128,365.7L128,64C128,46.3 142.3,32 160,32C177.7,32 192,46.3 192,64L192,365.7L224.4,330.3C236.3,317.3 256.6,316.4 269.6,328.3C282.6,340.2 283.5,360.5 271.6,373.5L183.6,469.5L183.6,469.6Z" style="fill:white;"/>
    </g>
    <path d="M320,320C320,302.3 334.3,288 352,288L480,288C492.9,288 504.6,295.8 509.6,307.8C514.6,319.8 511.8,333.5 502.7,342.7L429.3,416L480,416C497.7,416 512,430.3 512,448C512,465.7 497.7,480 480,480L352,480C339.1,480 327.4,472.2 322.4,460.2C317.4,448.2 320.2,434.5 329.3,425.3L402.7,352L352,352C334.3,352 320,337.7 320,320Z" style="fill:white;"/>
    <path d="M416,32C428.1,32 439.2,38.8 444.6,49.7L524.6,209.7C532.5,225.5 526.1,244.7 510.3,252.6C494.5,260.5 475.3,254.1 467.4,238.3L460.2,224L371.8,224L364.6,238.3C356.7,254.1 337.5,260.5 321.7,252.6C305.9,244.7 299.5,225.5 307.4,209.7L387.4,49.7C392.8,38.8 403.9,32 416,32ZM395.8,176L436.2,176L416,135.6L395.8,176Z" style="fill:white;"/>
</svg>
